<?xml version="1.0" standalone="no"?>
<svg viewBox="0 0 200 200" xmlns="http://www.w3.org/2000/svg">
  <path fill="#FA4D56" d="M29.4,-52.5C41.3,-44.1,56.2,-42.6,67.9,-35C79.6,-27.4,88.1,-13.7,77.5,-6.1C66.9,1.4,37.2,2.9,28.3,15.4C19.4,27.8,31.3,51.4,30.1,53.6C28.8,55.9,14.4,36.9,-0.8,38.3C-16,39.7,-32.1,61.5,-40.8,63.6C-49.6,65.6,-51.1,48,-58,34.1C-64.9,20.2,-77.3,10.1,-79.6,-1.3C-81.8,-12.7,-74,-25.5,-62.5,-31.4C-51,-37.4,-35.8,-36.6,-24.8,-45.5C-13.8,-54.4,-6.9,-72.9,0.9,-74.6C8.8,-76.2,17.5,-60.9,29.4,-52.5Z" transform="translate(100 100)" />
</svg>
