<?xml version="1.0" standalone="no"?>
<svg viewBox="0 0 200 200" xmlns="http://www.w3.org/2000/svg">
  <path fill="#FA4D56" d="M31.3,-47C43.7,-47.1,59.1,-45.1,62.7,-36.9C66.4,-28.7,58.2,-14.3,54.3,-2.2C50.4,9.9,50.8,19.7,47.5,28.4C44.1,37,37,44.5,28.5,55.3C20,66.2,10,80.5,2.2,76.6C-5.5,72.7,-11.1,50.7,-24.6,42.8C-38.2,34.8,-59.8,40.9,-62.4,36.1C-65.1,31.3,-48.8,15.7,-49.3,-0.3C-49.9,-16.3,-67.3,-32.6,-68,-43.2C-68.7,-53.8,-52.7,-58.7,-38.6,-57.7C-24.5,-56.6,-12.2,-49.5,-1.4,-47.1C9.5,-44.6,18.9,-46.9,31.3,-47Z" transform="translate(100 100)" />
</svg>
