<?xml version="1.0" standalone="no"?>
<svg viewBox="0 0 200 200" xmlns="http://www.w3.org/2000/svg">
  <path fill="#4D3BEC" d="M30.4,-56.8C38.6,-48,43.7,-38.1,50.4,-28.4C57.2,-18.8,65.7,-9.4,62.1,-2.1C58.5,5.2,42.8,10.4,33.1,15.1C23.4,19.7,19.7,23.8,15.2,35.8C10.7,47.9,5.4,67.9,-2.4,72C-10.1,76.1,-20.2,64.3,-31.7,56.3C-43.2,48.3,-56.1,44,-62.9,35.3C-69.7,26.5,-70.4,13.3,-68,1.4C-65.6,-10.5,-60.1,-21,-50.5,-25C-41,-29,-27.5,-26.6,-18.4,-34.8C-9.3,-43,-4.6,-61.9,3.3,-67.5C11.2,-73.2,22.3,-65.6,30.4,-56.8Z" transform="translate(100 100)" />
</svg>
